# xmcd
#
# Track frame offsets:
#	150
#	18143
#	34567
#	51575
#	76854
#	100443
#	121633
#	136092
#	153974
#	172694
#	189380
#	208204
#	228002
#	245039
#	264406
#	282148
#	304160
#	325475
#	343554
#
# Disc length: 4776 seconds
#
# Revision: 0
# Processed by: cddbd v1.5.1PL2 Copyright (c) Steve Scherf et al.
# Submitted via: EasyCDDAExtractor 9.0.0.1
#
DISCID=f612a613
DTITLE=Валерий Леонтьев - Платиновая коллекция [CD2)
DYEAR=2003
DGENRE=Pop
TTITLE0=Августин
TTITLE1=Секундомер
TTITLE2=Банановая республика
TTITLE3=По дороге в Голливуд
TTITLE4=До свидания Килиманжаро
TTITLE5=Сокровища черного моря
TTITLE6=Мулатка-шоколадка
TTITLE7=Канатный плясун
TTITLE8=Сеньорита
TTITLE9=Виновник
TTITLE10=Бездомная любовь
TTITLE11=Я не плейбой
TTITLE12=Чьи-то глаза
TTITLE13=Полнолуние
TTITLE14=Сны беззаботные
TTITLE15=Человек дождя
TTITLE16=Я позабыл твое лицо
TTITLE17=Вернисаж (вместе с Л. Вайкуле)
TTITLE18=Une vie d'amour
EXTD=
EXTT0=
EXTT1=
EXTT2=
EXTT3=
EXTT4=
EXTT5=
EXTT6=
EXTT7=
EXTT8=
EXTT9=
EXTT10=
EXTT11=
EXTT12=
EXTT13=
EXTT14=
EXTT15=
EXTT16=
EXTT17=
EXTT18=
PLAYORDER=
